<svg width="960" height="304" viewBox="0 0 960 304" fill="none" xmlns="http://www.w3.org/2000/svg">
<g clip-path="url(#clip0_1_416)">
<rect width="960" height="304" fill="#414141"/>
<g clip-path="url(#clip1_1_416)">
<path d="M593.183 244.273V253H592.126V245.381H592.075L589.944 246.795V245.722L592.126 244.273H593.183Z" fill="white"/>
<path d="M602.936 249.96V251.728C602.936 251.928 602.872 251.976 602.64 251.976C602.256 251.976 601.896 251.952 601.496 251.896C601.568 252.104 601.6 252.232 601.624 252.44C601.984 252.464 602.32 252.472 602.584 252.472C602.944 252.472 603.096 252.448 603.224 252.368C603.376 252.264 603.448 252.096 603.448 251.808V246.544C603.448 246.136 603.456 245.936 603.48 245.72C603.208 245.752 603 245.76 602.648 245.76H599.64C599.296 245.76 599.088 245.752 598.8 245.72C598.824 246.024 598.832 246.344 598.832 247.08C598.832 248.856 598.744 249.84 598.52 250.6C598.328 251.248 598.072 251.672 597.576 252.168C597.76 252.296 597.872 252.408 598.016 252.592C598.464 252.08 598.688 251.728 598.896 251.2C599.048 250.824 599.152 250.424 599.224 249.96H602.936ZM599.28 249.48C599.344 248.8 599.36 248.496 599.368 248.056H602.936V249.48H599.28ZM599.368 247.576V247.384L599.376 246.248H602.936V247.576H599.368Z" fill="white"/>
<path d="M899.98 253.119C899.48 253.119 899.03 253.02 898.629 252.821C898.229 252.622 897.908 252.349 897.666 252.003C897.425 251.656 897.293 251.261 897.27 250.818H898.293C898.333 251.213 898.512 251.54 898.83 251.798C899.151 252.054 899.534 252.182 899.98 252.182C900.338 252.182 900.656 252.098 900.935 251.93C901.216 251.763 901.436 251.533 901.595 251.24C901.757 250.945 901.838 250.611 901.838 250.239C901.838 249.858 901.754 249.518 901.587 249.22C901.422 248.919 901.195 248.682 900.905 248.509C900.615 248.335 900.284 248.247 899.912 248.244C899.645 248.241 899.371 248.283 899.09 248.368C898.808 248.45 898.577 248.557 898.395 248.688L897.406 248.568L897.935 244.273H902.469V245.21H898.821L898.514 247.784H898.566C898.744 247.642 898.969 247.524 899.239 247.43C899.509 247.337 899.79 247.29 900.083 247.29C900.617 247.29 901.093 247.418 901.51 247.673C901.931 247.926 902.26 248.273 902.499 248.713C902.74 249.153 902.861 249.656 902.861 250.222C902.861 250.778 902.736 251.276 902.486 251.713C902.239 252.148 901.898 252.491 901.463 252.744C901.029 252.994 900.534 253.119 899.98 253.119Z" fill="white"/>
<path d="M910.936 249.96V251.728C910.936 251.928 910.872 251.976 910.64 251.976C910.256 251.976 909.896 251.952 909.496 251.896C909.568 252.104 909.6 252.232 909.624 252.44C909.984 252.464 910.32 252.472 910.584 252.472C910.944 252.472 911.096 252.448 911.224 252.368C911.376 252.264 911.448 252.096 911.448 251.808V246.544C911.448 246.136 911.456 245.936 911.48 245.72C911.208 245.752 911 245.76 910.648 245.76H907.64C907.296 245.76 907.088 245.752 906.8 245.72C906.824 246.024 906.832 246.344 906.832 247.08C906.832 248.856 906.744 249.84 906.52 250.6C906.328 251.248 906.072 251.672 905.576 252.168C905.76 252.296 905.872 252.408 906.016 252.592C906.464 252.08 906.688 251.728 906.896 251.2C907.048 250.824 907.152 250.424 907.224 249.96H910.936ZM907.28 249.48C907.344 248.8 907.36 248.496 907.368 248.056H910.936V249.48H907.28ZM907.368 247.576V247.384L907.376 246.248H910.936V247.576H907.368Z" fill="white"/>
<path d="M666.271 253V252.233L669.151 249.08C669.489 248.71 669.768 248.389 669.987 248.116C670.205 247.841 670.367 247.582 670.472 247.341C670.58 247.097 670.634 246.841 670.634 246.574C670.634 246.267 670.56 246.001 670.413 245.777C670.268 245.553 670.069 245.379 669.816 245.257C669.563 245.135 669.279 245.074 668.964 245.074C668.629 245.074 668.336 245.143 668.086 245.283C667.839 245.419 667.647 245.611 667.511 245.858C667.377 246.105 667.31 246.395 667.31 246.727H666.305C666.305 246.216 666.423 245.767 666.658 245.381C666.894 244.994 667.215 244.693 667.621 244.477C668.031 244.261 668.489 244.153 668.998 244.153C669.509 244.153 669.962 244.261 670.357 244.477C670.752 244.693 671.062 244.984 671.286 245.351C671.511 245.717 671.623 246.125 671.623 246.574C671.623 246.895 671.565 247.209 671.448 247.516C671.335 247.82 671.136 248.159 670.852 248.534C670.57 248.906 670.18 249.361 669.68 249.898L667.719 251.994V252.062H671.776V253H666.271Z" fill="white"/>
<path d="M679.936 249.96V251.728C679.936 251.928 679.872 251.976 679.64 251.976C679.256 251.976 678.896 251.952 678.496 251.896C678.568 252.104 678.6 252.232 678.624 252.44C678.984 252.464 679.32 252.472 679.584 252.472C679.944 252.472 680.096 252.448 680.224 252.368C680.376 252.264 680.448 252.096 680.448 251.808V246.544C680.448 246.136 680.456 245.936 680.48 245.72C680.208 245.752 680 245.76 679.648 245.76H676.64C676.296 245.76 676.088 245.752 675.8 245.72C675.824 246.024 675.832 246.344 675.832 247.08C675.832 248.856 675.744 249.84 675.52 250.6C675.328 251.248 675.072 251.672 674.576 252.168C674.76 252.296 674.872 252.408 675.016 252.592C675.464 252.08 675.688 251.728 675.896 251.2C676.048 250.824 676.152 250.424 676.224 249.96H679.936ZM676.28 249.48C676.344 248.8 676.36 248.496 676.368 248.056H679.936V249.48H676.28ZM676.368 247.576V247.384L676.376 246.248H679.936V247.576H676.368Z" fill="white"/>
<path d="M50.057 253.119C49.699 253.114 49.3411 253.045 48.9831 252.915C48.6252 252.784 48.2985 252.564 48.003 252.254C47.7076 251.942 47.4703 251.52 47.2914 250.989C47.1124 250.455 47.0229 249.784 47.0229 248.977C47.0229 248.205 47.0953 247.52 47.2402 246.923C47.3851 246.324 47.5953 245.82 47.8709 245.411C48.1465 244.999 48.4789 244.686 48.8681 244.473C49.2601 244.26 49.7019 244.153 50.1934 244.153C50.682 244.153 51.1167 244.251 51.4973 244.447C51.8809 244.641 52.1934 244.911 52.4348 245.257C52.6763 245.604 52.8326 246.003 52.9036 246.455H51.8638C51.7672 246.062 51.5797 245.737 51.3013 245.479C51.0229 245.22 50.6536 245.091 50.1934 245.091C49.5172 245.091 48.9846 245.385 48.5953 245.973C48.209 246.561 48.0144 247.386 48.0115 248.449H48.0797C48.2388 248.207 48.4277 248.001 48.6465 247.831C48.8681 247.658 49.1124 247.524 49.3794 247.43C49.6465 247.337 49.9292 247.29 50.2275 247.29C50.7275 247.29 51.1848 247.415 51.5996 247.665C52.0144 247.912 52.3468 248.254 52.5968 248.692C52.8468 249.126 52.9718 249.625 52.9718 250.188C52.9718 250.727 52.851 251.222 52.6096 251.67C52.3681 252.116 52.0286 252.472 51.5911 252.736C51.1564 252.997 50.6451 253.125 50.057 253.119ZM50.057 252.182C50.415 252.182 50.736 252.092 51.0201 251.913C51.307 251.734 51.5328 251.494 51.6976 251.193C51.8652 250.892 51.949 250.557 51.949 250.188C51.949 249.827 51.8681 249.499 51.7061 249.203C51.5471 248.905 51.3269 248.668 51.0456 248.491C50.7672 248.315 50.449 248.227 50.0911 248.227C49.8212 248.227 49.5698 248.281 49.3368 248.389C49.1039 248.494 48.8993 248.639 48.7232 248.824C48.5499 249.009 48.4135 249.22 48.3141 249.459C48.2147 249.695 48.165 249.943 48.165 250.205C48.165 250.551 48.2459 250.875 48.4078 251.176C48.5726 251.477 48.7971 251.72 49.0811 251.905C49.3681 252.089 49.6934 252.182 50.057 252.182Z" fill="white"/>
<path d="M60.936 249.96V251.728C60.936 251.928 60.872 251.976 60.64 251.976C60.256 251.976 59.896 251.952 59.496 251.896C59.568 252.104 59.6 252.232 59.624 252.44C59.984 252.464 60.32 252.472 60.584 252.472C60.944 252.472 61.096 252.448 61.224 252.368C61.376 252.264 61.448 252.096 61.448 251.808V246.544C61.448 246.136 61.456 245.936 61.48 245.72C61.208 245.752 61 245.76 60.648 245.76H57.64C57.296 245.76 57.088 245.752 56.8 245.72C56.824 246.024 56.832 246.344 56.832 247.08C56.832 248.856 56.744 249.84 56.52 250.6C56.328 251.248 56.072 251.672 55.576 252.168C55.76 252.296 55.872 252.408 56.016 252.592C56.464 252.08 56.688 251.728 56.896 251.2C57.048 250.824 57.152 250.424 57.224 249.96H60.936ZM57.28 249.48C57.344 248.8 57.36 248.496 57.368 248.056H60.936V249.48H57.28ZM57.368 247.576V247.384L57.376 246.248H60.936V247.576H57.368Z" fill="white"/>
<path d="M280.938 244.153C281.296 244.156 281.654 244.224 282.012 244.358C282.369 244.491 282.696 244.713 282.992 245.023C283.287 245.33 283.524 245.749 283.703 246.28C283.882 246.811 283.972 247.477 283.972 248.278C283.972 249.054 283.898 249.743 283.75 250.345C283.605 250.945 283.395 251.45 283.119 251.862C282.847 252.274 282.514 252.587 282.122 252.8C281.733 253.013 281.293 253.119 280.801 253.119C280.313 253.119 279.877 253.023 279.493 252.83C279.112 252.634 278.8 252.362 278.556 252.016C278.314 251.666 278.159 251.261 278.091 250.801H279.131C279.225 251.202 279.411 251.533 279.689 251.794C279.97 252.053 280.341 252.182 280.801 252.182C281.475 252.182 282.006 251.888 282.395 251.3C282.787 250.712 282.983 249.881 282.983 248.807H282.915C282.756 249.045 282.567 249.251 282.348 249.425C282.129 249.598 281.887 249.732 281.619 249.825C281.352 249.919 281.068 249.966 280.767 249.966C280.267 249.966 279.808 249.842 279.391 249.595C278.976 249.345 278.644 249.003 278.394 248.568C278.146 248.131 278.023 247.631 278.023 247.068C278.023 246.534 278.142 246.045 278.381 245.602C278.622 245.156 278.96 244.801 279.395 244.537C279.833 244.273 280.347 244.145 280.938 244.153ZM280.938 245.091C280.58 245.091 280.257 245.18 279.97 245.359C279.686 245.536 279.46 245.774 279.293 246.075C279.128 246.374 279.046 246.705 279.046 247.068C279.046 247.432 279.125 247.763 279.284 248.061C279.446 248.357 279.666 248.592 279.945 248.768C280.226 248.942 280.546 249.028 280.904 249.028C281.173 249.028 281.425 248.976 281.658 248.871C281.891 248.763 282.094 248.616 282.267 248.432C282.443 248.244 282.581 248.033 282.681 247.797C282.78 247.558 282.83 247.31 282.83 247.051C282.83 246.71 282.747 246.391 282.583 246.092C282.421 245.794 282.196 245.553 281.909 245.368C281.625 245.183 281.301 245.091 280.938 245.091Z" fill="white"/>
<path d="M291.936 249.96V251.728C291.936 251.928 291.872 251.976 291.64 251.976C291.256 251.976 290.896 251.952 290.496 251.896C290.568 252.104 290.6 252.232 290.624 252.44C290.984 252.464 291.32 252.472 291.584 252.472C291.944 252.472 292.096 252.448 292.224 252.368C292.376 252.264 292.448 252.096 292.448 251.808V246.544C292.448 246.136 292.456 245.936 292.48 245.72C292.208 245.752 292 245.76 291.648 245.76H288.64C288.296 245.76 288.088 245.752 287.8 245.72C287.824 246.024 287.832 246.344 287.832 247.08C287.832 248.856 287.744 249.84 287.52 250.6C287.328 251.248 287.072 251.672 286.576 252.168C286.76 252.296 286.872 252.408 287.016 252.592C287.464 252.08 287.688 251.728 287.896 251.2C288.048 250.824 288.152 250.424 288.224 249.96H291.936ZM288.28 249.48C288.344 248.8 288.36 248.496 288.368 248.056H291.936V249.48H288.28ZM288.368 247.576V247.384L288.376 246.248H291.936V247.576H288.368Z" fill="white"/>
<path d="M746.032 253.119C745.469 253.119 744.968 253.023 744.528 252.83C744.09 252.636 743.742 252.368 743.484 252.024C743.228 251.678 743.089 251.276 743.066 250.818H744.14C744.163 251.099 744.259 251.342 744.43 251.547C744.6 251.749 744.823 251.905 745.099 252.016C745.374 252.126 745.68 252.182 746.015 252.182C746.39 252.182 746.722 252.116 747.012 251.986C747.302 251.855 747.529 251.673 747.694 251.44C747.859 251.207 747.941 250.938 747.941 250.631C747.941 250.31 747.862 250.027 747.702 249.783C747.543 249.536 747.31 249.342 747.004 249.203C746.697 249.064 746.322 248.994 745.879 248.994H745.18V248.057H745.879C746.225 248.057 746.529 247.994 746.79 247.869C747.055 247.744 747.261 247.568 747.408 247.341C747.559 247.114 747.634 246.847 747.634 246.54C747.634 246.244 747.569 245.987 747.438 245.768C747.308 245.55 747.123 245.379 746.884 245.257C746.648 245.135 746.37 245.074 746.049 245.074C745.748 245.074 745.464 245.129 745.197 245.24C744.933 245.348 744.717 245.506 744.549 245.713C744.381 245.918 744.29 246.165 744.276 246.455H743.254C743.271 245.997 743.408 245.597 743.667 245.253C743.925 244.906 744.263 244.636 744.681 244.443C745.102 244.25 745.563 244.153 746.066 244.153C746.606 244.153 747.069 244.263 747.455 244.482C747.842 244.697 748.138 244.983 748.346 245.338C748.553 245.693 748.657 246.077 748.657 246.489C748.657 246.98 748.528 247.399 748.269 247.746C748.013 248.092 747.665 248.332 747.225 248.466V248.534C747.776 248.625 748.207 248.859 748.516 249.237C748.826 249.612 748.981 250.077 748.981 250.631C748.981 251.105 748.852 251.531 748.593 251.909C748.337 252.284 747.988 252.58 747.545 252.795C747.102 253.011 746.597 253.119 746.032 253.119Z" fill="white"/>
<path d="M756.936 249.96V251.728C756.936 251.928 756.872 251.976 756.64 251.976C756.256 251.976 755.896 251.952 755.496 251.896C755.568 252.104 755.6 252.232 755.624 252.44C755.984 252.464 756.32 252.472 756.584 252.472C756.944 252.472 757.096 252.448 757.224 252.368C757.376 252.264 757.448 252.096 757.448 251.808V246.544C757.448 246.136 757.456 245.936 757.48 245.72C757.208 245.752 757 245.76 756.648 245.76H753.64C753.296 245.76 753.088 245.752 752.8 245.72C752.824 246.024 752.832 246.344 752.832 247.08C752.832 248.856 752.744 249.84 752.52 250.6C752.328 251.248 752.072 251.672 751.576 252.168C751.76 252.296 751.872 252.408 752.016 252.592C752.464 252.08 752.688 251.728 752.896 251.2C753.048 250.824 753.152 250.424 753.224 249.96H756.936ZM753.28 249.48C753.344 248.8 753.36 248.496 753.368 248.056H756.936V249.48H753.28ZM753.368 247.576V247.384L753.376 246.248H756.936V247.576H753.368Z" fill="white"/>
<path d="M125.248 253L129.152 245.278V245.21H124.652V244.273H130.243V245.261L126.356 253H125.248Z" fill="white"/>
<path d="M137.936 249.96V251.728C137.936 251.928 137.872 251.976 137.64 251.976C137.256 251.976 136.896 251.952 136.496 251.896C136.568 252.104 136.6 252.232 136.624 252.44C136.984 252.464 137.32 252.472 137.584 252.472C137.944 252.472 138.096 252.448 138.224 252.368C138.376 252.264 138.448 252.096 138.448 251.808V246.544C138.448 246.136 138.456 245.936 138.48 245.72C138.208 245.752 138 245.76 137.648 245.76H134.64C134.296 245.76 134.088 245.752 133.8 245.72C133.824 246.024 133.832 246.344 133.832 247.08C133.832 248.856 133.744 249.84 133.52 250.6C133.328 251.248 133.072 251.672 132.576 252.168C132.76 252.296 132.872 252.408 133.016 252.592C133.464 252.08 133.688 251.728 133.896 251.2C134.048 250.824 134.152 250.424 134.224 249.96H137.936ZM134.28 249.48C134.344 248.8 134.36 248.496 134.368 248.056H137.936V249.48H134.28ZM134.368 247.576V247.384L134.376 246.248H137.936V247.576H134.368Z" fill="white"/>
<path d="M357.433 244.273V253H356.376V245.381H356.325L354.194 246.795V245.722L356.376 244.273H357.433ZM362.789 253.119C362.147 253.119 361.6 252.945 361.148 252.595C360.697 252.243 360.352 251.733 360.113 251.065C359.874 250.395 359.755 249.585 359.755 248.636C359.755 247.693 359.874 246.888 360.113 246.22C360.354 245.55 360.701 245.038 361.153 244.686C361.607 244.331 362.153 244.153 362.789 244.153C363.425 244.153 363.969 244.331 364.421 244.686C364.876 245.038 365.222 245.55 365.461 246.22C365.702 246.888 365.823 247.693 365.823 248.636C365.823 249.585 365.704 250.395 365.465 251.065C365.227 251.733 364.881 252.243 364.43 252.595C363.978 252.945 363.431 253.119 362.789 253.119ZM362.789 252.182C363.425 252.182 363.92 251.875 364.272 251.261C364.624 250.648 364.8 249.773 364.8 248.636C364.8 247.881 364.719 247.237 364.558 246.706C364.398 246.175 364.168 245.77 363.867 245.491C363.569 245.213 363.21 245.074 362.789 245.074C362.158 245.074 361.665 245.385 361.31 246.007C360.955 246.626 360.778 247.503 360.778 248.636C360.778 249.392 360.857 250.034 361.016 250.562C361.175 251.091 361.404 251.493 361.702 251.768C362.004 252.044 362.366 252.182 362.789 252.182Z" fill="white"/>
<path d="M372.936 249.96V251.728C372.936 251.928 372.872 251.976 372.64 251.976C372.256 251.976 371.896 251.952 371.496 251.896C371.568 252.104 371.6 252.232 371.624 252.44C371.984 252.464 372.32 252.472 372.584 252.472C372.944 252.472 373.096 252.448 373.224 252.368C373.376 252.264 373.448 252.096 373.448 251.808V246.544C373.448 246.136 373.456 245.936 373.48 245.72C373.208 245.752 373 245.76 372.648 245.76H369.64C369.296 245.76 369.088 245.752 368.8 245.72C368.824 246.024 368.832 246.344 368.832 247.08C368.832 248.856 368.744 249.84 368.52 250.6C368.328 251.248 368.072 251.672 367.576 252.168C367.76 252.296 367.872 252.408 368.016 252.592C368.464 252.08 368.688 251.728 368.896 251.2C369.048 250.824 369.152 250.424 369.224 249.96H372.936ZM369.28 249.48C369.344 248.8 369.36 248.496 369.368 248.056H372.936V249.48H369.28ZM369.368 247.576V247.384L369.376 246.248H372.936V247.576H369.368Z" fill="white"/>
<path d="M819.849 251.21V250.341L823.684 244.273H824.315V245.619H823.889L820.991 250.205V250.273H826.156V251.21H819.849ZM823.957 253V250.946V250.541V244.273H824.963V253H823.957Z" fill="white"/>
<path d="M833.936 249.96V251.728C833.936 251.928 833.872 251.976 833.64 251.976C833.256 251.976 832.896 251.952 832.496 251.896C832.568 252.104 832.6 252.232 832.624 252.44C832.984 252.464 833.32 252.472 833.584 252.472C833.944 252.472 834.096 252.448 834.224 252.368C834.376 252.264 834.448 252.096 834.448 251.808V246.544C834.448 246.136 834.456 245.936 834.48 245.72C834.208 245.752 834 245.76 833.648 245.76H830.64C830.296 245.76 830.088 245.752 829.8 245.72C829.824 246.024 829.832 246.344 829.832 247.08C829.832 248.856 829.744 249.84 829.52 250.6C829.328 251.248 829.072 251.672 828.576 252.168C828.76 252.296 828.872 252.408 829.016 252.592C829.464 252.08 829.688 251.728 829.896 251.2C830.048 250.824 830.152 250.424 830.224 249.96H833.936ZM830.28 249.48C830.344 248.8 830.36 248.496 830.368 248.056H833.936V249.48H830.28ZM830.368 247.576V247.384L830.376 246.248H833.936V247.576H830.368Z" fill="white"/>
<path d="M204.002 253.119C203.416 253.119 202.899 253.016 202.45 252.808C202.004 252.598 201.656 252.31 201.406 251.943C201.156 251.574 201.033 251.153 201.036 250.682C201.033 250.312 201.105 249.972 201.253 249.659C201.401 249.344 201.602 249.081 201.858 248.871C202.117 248.658 202.405 248.523 202.723 248.466V248.415C202.306 248.307 201.973 248.072 201.726 247.712C201.479 247.348 201.357 246.935 201.36 246.472C201.357 246.028 201.469 245.632 201.696 245.283C201.923 244.933 202.236 244.658 202.634 244.456C203.034 244.254 203.49 244.153 204.002 244.153C204.507 244.153 204.959 244.254 205.357 244.456C205.754 244.658 206.067 244.933 206.294 245.283C206.524 245.632 206.641 246.028 206.644 246.472C206.641 246.935 206.514 247.348 206.264 247.712C206.017 248.072 205.689 248.307 205.28 248.415V248.466C205.595 248.523 205.879 248.658 206.132 248.871C206.385 249.081 206.587 249.344 206.737 249.659C206.888 249.972 206.965 250.312 206.968 250.682C206.965 251.153 206.837 251.574 206.584 251.943C206.334 252.31 205.986 252.598 205.54 252.808C205.097 253.016 204.584 253.119 204.002 253.119ZM204.002 252.182C204.396 252.182 204.737 252.118 205.024 251.99C205.311 251.862 205.533 251.682 205.689 251.449C205.845 251.216 205.925 250.943 205.928 250.631C205.925 250.301 205.84 250.01 205.672 249.757C205.504 249.504 205.276 249.305 204.986 249.161C204.699 249.016 204.371 248.943 204.002 248.943C203.629 248.943 203.297 249.016 203.004 249.161C202.715 249.305 202.486 249.504 202.318 249.757C202.154 250.01 202.073 250.301 202.075 250.631C202.073 250.943 202.148 251.216 202.301 251.449C202.458 251.682 202.681 251.862 202.97 251.99C203.26 252.118 203.604 252.182 204.002 252.182ZM204.002 248.04C204.314 248.04 204.591 247.977 204.833 247.852C205.077 247.727 205.269 247.553 205.408 247.328C205.547 247.104 205.618 246.841 205.621 246.54C205.618 246.244 205.548 245.987 205.412 245.768C205.276 245.547 205.087 245.376 204.845 245.257C204.604 245.135 204.323 245.074 204.002 245.074C203.675 245.074 203.389 245.135 203.145 245.257C202.901 245.376 202.712 245.547 202.578 245.768C202.445 245.987 202.379 246.244 202.382 246.54C202.379 246.841 202.446 247.104 202.583 247.328C202.722 247.553 202.914 247.727 203.158 247.852C203.402 247.977 203.683 248.04 204.002 248.04Z" fill="white"/>
<path d="M214.936 249.96V251.728C214.936 251.928 214.872 251.976 214.64 251.976C214.256 251.976 213.896 251.952 213.496 251.896C213.568 252.104 213.6 252.232 213.624 252.44C213.984 252.464 214.32 252.472 214.584 252.472C214.944 252.472 215.096 252.448 215.224 252.368C215.376 252.264 215.448 252.096 215.448 251.808V246.544C215.448 246.136 215.456 245.936 215.48 245.72C215.208 245.752 215 245.76 214.648 245.76H211.64C211.296 245.76 211.088 245.752 210.8 245.72C210.824 246.024 210.832 246.344 210.832 247.08C210.832 248.856 210.744 249.84 210.52 250.6C210.328 251.248 210.072 251.672 209.576 252.168C209.76 252.296 209.872 252.408 210.016 252.592C210.464 252.08 210.688 251.728 210.896 251.2C211.048 250.824 211.152 250.424 211.224 249.96H214.936ZM211.28 249.48C211.344 248.8 211.36 248.496 211.368 248.056H214.936V249.48H211.28ZM211.368 247.576V247.384L211.376 246.248H214.936V247.576H211.368Z" fill="white"/>
<path d="M436.393 244.273V253H435.337V245.381H435.286L433.155 246.795V245.722L435.337 244.273H436.393ZM441.972 244.273V253H440.915V245.381H440.864L438.733 246.795V245.722L440.915 244.273H441.972Z" fill="white"/>
<path d="M449.936 249.96V251.728C449.936 251.928 449.872 251.976 449.64 251.976C449.256 251.976 448.896 251.952 448.496 251.896C448.568 252.104 448.6 252.232 448.624 252.44C448.984 252.464 449.32 252.472 449.584 252.472C449.944 252.472 450.096 252.448 450.224 252.368C450.376 252.264 450.448 252.096 450.448 251.808V246.544C450.448 246.136 450.456 245.936 450.48 245.72C450.208 245.752 450 245.76 449.648 245.76H446.64C446.296 245.76 446.088 245.752 445.8 245.72C445.824 246.024 445.832 246.344 445.832 247.08C445.832 248.856 445.744 249.84 445.52 250.6C445.328 251.248 445.072 251.672 444.576 252.168C444.76 252.296 444.872 252.408 445.016 252.592C445.464 252.08 445.688 251.728 445.896 251.2C446.048 250.824 446.152 250.424 446.224 249.96H449.936ZM446.28 249.48C446.344 248.8 446.36 248.496 446.368 248.056H449.936V249.48H446.28ZM446.368 247.576V247.384L446.376 246.248H449.936V247.576H446.368Z" fill="white"/>
<path d="M514.05 244.273V253H512.993V245.381H512.942L510.811 246.795V245.722L512.993 244.273H514.05ZM516.56 253V252.233L519.44 249.08C519.778 248.71 520.057 248.389 520.276 248.116C520.494 247.841 520.656 247.582 520.761 247.341C520.869 247.097 520.923 246.841 520.923 246.574C520.923 246.267 520.849 246.001 520.702 245.777C520.557 245.553 520.358 245.379 520.105 245.257C519.852 245.135 519.568 245.074 519.253 245.074C518.918 245.074 518.625 245.143 518.375 245.283C518.128 245.419 517.936 245.611 517.8 245.858C517.666 246.105 517.599 246.395 517.599 246.727H516.594C516.594 246.216 516.712 245.767 516.947 245.381C517.183 244.994 517.504 244.693 517.911 244.477C518.32 244.261 518.778 244.153 519.287 244.153C519.798 244.153 520.251 244.261 520.646 244.477C521.041 244.693 521.351 244.984 521.575 245.351C521.8 245.717 521.912 246.125 521.912 246.574C521.912 246.895 521.854 247.209 521.737 247.516C521.624 247.82 521.425 248.159 521.141 248.534C520.859 248.906 520.469 249.361 519.969 249.898L518.009 251.994V252.062H522.065V253H516.56Z" fill="white"/>
<path d="M528.936 249.96V251.728C528.936 251.928 528.872 251.976 528.64 251.976C528.256 251.976 527.896 251.952 527.496 251.896C527.568 252.104 527.6 252.232 527.624 252.44C527.984 252.464 528.32 252.472 528.584 252.472C528.944 252.472 529.096 252.448 529.224 252.368C529.376 252.264 529.448 252.096 529.448 251.808V246.544C529.448 246.136 529.456 245.936 529.48 245.72C529.208 245.752 529 245.76 528.648 245.76H525.64C525.296 245.76 525.088 245.752 524.8 245.72C524.824 246.024 524.832 246.344 524.832 247.08C524.832 248.856 524.744 249.84 524.52 250.6C524.328 251.248 524.072 251.672 523.576 252.168C523.76 252.296 523.872 252.408 524.016 252.592C524.464 252.08 524.688 251.728 524.896 251.2C525.048 250.824 525.152 250.424 525.224 249.96H528.936ZM525.28 249.48C525.344 248.8 525.36 248.496 525.368 248.056H528.936V249.48H525.28ZM525.368 247.576V247.384L525.376 246.248H528.936V247.576H525.368Z" fill="white"/>
</g>
<g clip-path="url(#clip2_1_416)">
<path d="M55 54V239" stroke="#777777"/>
<path d="M132 54V239" stroke="#777777"/>
<path d="M209 54V239" stroke="#777777"/>
<path d="M287 54V239" stroke="#777777"/>
<path d="M364 54V239" stroke="#777777"/>
<path d="M441 54V239" stroke="#777777"/>
<path d="M519 54V239" stroke="#777777"/>
<path d="M596 54V239" stroke="#777777"/>
<path d="M673 54V239" stroke="#777777"/>
<path d="M751 54V239" stroke="#777777"/>
<path d="M828 54V239" stroke="#777777"/>
<path d="M906 54V239" stroke="#777777"/>
</g>
<g clip-path="url(#clip3_1_416)">
<path d="M55.233 79.329L132.64 91.8372L210.047 119.893L287.455 125.113L364.862 152.517L442.269 155.127L519.676 172.743L597.084 176.658L674.491 185.793L751.898 209.282L829.305 216.051L906.609 222.984" stroke="#8FE9D0" stroke-width="3"/>
<circle cx="132.733" cy="92" r="4" fill="#8FE9D0"/>
<circle cx="55.233" cy="79.5" r="4" fill="#8FE9D0"/>
<circle cx="209.733" cy="119.312" r="4" fill="#8FE9D0"/>
<circle cx="287.768" cy="125.536" r="4" fill="#8FE9D0"/>
<circle cx="364.194" cy="151.961" r="4" fill="#8FE9D0"/>
<circle cx="441.109" cy="155.573" r="4" fill="#8FE9D0"/>
<circle cx="519.047" cy="172.551" r="4" fill="#8FE9D0"/>
<circle cx="596.473" cy="176.551" r="4" fill="#8FE9D0"/>
<circle cx="673.388" cy="186.264" r="4" fill="#8FE9D0"/>
<circle cx="751" cy="209" r="4" fill="#8FE9D0"/>
<circle cx="906" cy="223" r="4" fill="#8FE9D0"/>
<circle cx="829" cy="216" r="4" fill="#8FE9D0"/>
</g>
<g clip-path="url(#clip4_1_416)">
<path d="M55.233 79.329L132.53 87.7641L209.827 158.353L287.291 109.054L364.182 130.347L441.784 146.151L519.404 125.838L596.426 159.129L673.52 169.357L749.953 185.409L828.75 203.437L905.5 213.541" stroke="#FFCC21" stroke-width="3"/>
<circle cx="132.733" cy="89" r="4" fill="#FFCC21"/>
<circle cx="55.233" cy="79.5" r="4" fill="#FFCC21"/>
<circle cx="209.733" cy="158" r="4" fill="#FFCC21"/>
<circle cx="828" cy="203" r="4" fill="#FFCC21"/>
<circle cx="906" cy="214" r="4" fill="#FFCC21"/>
<circle cx="287.801" cy="110" r="4" fill="#FFCC21"/>
<circle cx="363.59" cy="130" r="4" fill="#FFCC21"/>
<circle cx="440.865" cy="146" r="4" fill="#FFCC21"/>
<circle cx="596.901" cy="159" r="4" fill="#FFCC21"/>
<circle cx="672.69" cy="169" r="4" fill="#FFCC21"/>
<circle cx="751" cy="185" r="4" fill="#FFCC21"/>
<circle cx="519.626" cy="126" r="4" fill="#FFCC21"/>
</g>
</g>
<defs>
<clipPath id="clip0_1_416">
<rect width="960" height="304" fill="white"/>
</clipPath>
<clipPath id="clip1_1_416">
<rect width="866" height="26.625" fill="white" transform="translate(47 241)"/>
</clipPath>
<clipPath id="clip2_1_416">
<rect width="851" height="185" fill="white" transform="translate(55 54)"/>
</clipPath>
<clipPath id="clip3_1_416">
<rect width="858.767" height="151.5" fill="white" transform="translate(51.233 75.5)"/>
</clipPath>
<clipPath id="clip4_1_416">
<rect width="858.767" height="142.5" fill="white" transform="translate(51.233 75.5)"/>
</clipPath>
</defs>
</svg>
